<svg width="4" height="17" viewBox="0 0 4 17" fill="none" xmlns="http://www.w3.org/2000/svg">
<path d="M1.69725 3.399C1.22458 3.399 0.823584 3.23383 0.494251 2.9035C0.16475 2.57333 0 2.17242 0 1.70075C0 1.22908 0.165083 0.827666 0.49525 0.4965C0.825583 0.1655 1.22658 0 1.69825 0C2.16992 0 2.57125 0.165416 2.90225 0.496249C3.23342 0.827249 3.399 1.229 3.399 1.7015C3.399 2.17417 3.2335 2.57525 2.9025 2.90475C2.57167 3.23425 2.16992 3.399 1.69725 3.399ZM1.69825 16.5882C1.36475 16.5882 1.08167 16.4718 0.849 16.2388C0.616333 16.0058 0.5 15.7228 0.5 15.39V7.085C0.5 6.75217 0.616333 6.46892 0.849 6.23525C1.08183 6.00142 1.36458 5.8845 1.69725 5.8845C2.02975 5.8845 2.31317 6.00117 2.5475 6.2345C2.78183 6.468 2.899 6.75142 2.899 7.08475V15.3903C2.899 15.7231 2.78225 16.0059 2.54875 16.2388C2.31525 16.4718 2.03175 16.5882 1.69825 16.5882Z" fill="#212121"/>
</svg>
