<svg width="16" height="16" viewBox="0 0 16 16" fill="none" xmlns="http://www.w3.org/2000/svg">
<path d="M8.575 12.1752L13.475 7.2752C13.675 7.0752 13.9083 6.97936 14.175 6.98769C14.4417 6.99603 14.675 7.10019 14.875 7.30019C15.0583 7.5002 15.1542 7.73353 15.1625 8.0002C15.1708 8.26686 15.075 8.5002 14.875 8.7002L8.275 15.3002C8.175 15.4002 8.06667 15.471 7.95 15.5127C7.83333 15.5544 7.70833 15.5752 7.575 15.5752C7.44167 15.5752 7.31667 15.5544 7.2 15.5127C7.08333 15.471 6.975 15.4002 6.875 15.3002L0.275 8.7002C0.0916667 8.51686 0 8.2877 0 8.0127C0 7.7377 0.0916667 7.5002 0.275 7.30019C0.475 7.10019 0.7125 7.0002 0.9875 7.0002C1.2625 7.0002 1.5 7.10019 1.7 7.30019L6.575 12.1752V1.0002C6.575 0.716862 6.67083 0.479362 6.8625 0.287695C7.05417 0.0960283 7.29167 0.000195503 7.575 0.000195503C7.85833 0.000195503 8.09583 0.0960283 8.2875 0.287695C8.47917 0.479362 8.575 0.716862 8.575 1.0002V12.1752Z" fill="#6DB85B"/>
</svg>
