<svg width="16" height="16" viewBox="0 0 16 16" fill="none" xmlns="http://www.w3.org/2000/svg">
<path d="M6.58809 3.4L1.68809 8.3C1.48809 8.5 1.25475 8.59583 0.988086 8.5875C0.721419 8.57917 0.488086 8.475 0.288086 8.275C0.104753 8.075 0.00891876 7.84167 0.000585556 7.575C-0.00774765 7.30833 0.0880861 7.075 0.288086 6.875L6.88809 0.275C6.98809 0.175 7.09642 0.104167 7.21309 0.0625C7.32975 0.0208333 7.45475 0 7.58809 0C7.72142 0 7.84642 0.0208333 7.96309 0.0625C8.07975 0.104167 8.18809 0.175 8.28809 0.275L14.8881 6.875C15.0714 7.05833 15.1631 7.2875 15.1631 7.5625C15.1631 7.8375 15.0714 8.075 14.8881 8.275C14.6881 8.475 14.4506 8.575 14.1756 8.575C13.9006 8.575 13.6631 8.475 13.4631 8.275L8.58809 3.4L8.58809 14.575C8.58809 14.8583 8.49225 15.0958 8.30059 15.2875C8.10892 15.4792 7.87142 15.575 7.58809 15.575C7.30475 15.575 7.06725 15.4792 6.87559 15.2875C6.68392 15.0958 6.58809 14.8583 6.58809 14.575L6.58809 3.4Z" fill="rgba(133, 34, 33, 1)"/>
</svg>
