<svg width="11" height="19" viewBox="0 0 11 19" fill="none" xmlns="http://www.w3.org/2000/svg">
<path d="M2.7246 9.48779L10.0746 16.8378C10.3246 17.0878 10.4454 17.3836 10.4371 17.7253C10.4288 18.067 10.2996 18.3628 10.0496 18.6128C9.7996 18.8628 9.50376 18.9878 9.1621 18.9878C8.82043 18.9878 8.5246 18.8628 8.2746 18.6128L0.599596 10.9128C0.399596 10.7128 0.249597 10.4878 0.149596 10.2378C0.0495958 9.98779 -0.000403404 9.73779 -0.000403404 9.48779C-0.000403404 9.23779 0.0495958 8.98779 0.149596 8.73779C0.249597 8.48779 0.399596 8.26279 0.599596 8.06279L8.2996 0.362793C8.5496 0.112793 8.84126 -0.00804138 9.1746 0.000291824C9.50793 0.00862694 9.7996 0.137793 10.0496 0.387793C10.2996 0.637793 10.4246 0.933626 10.4246 1.27529C10.4246 1.61696 10.2996 1.91279 10.0496 2.16279L2.7246 9.48779Z" fill="#212121"/>
</svg>
