<svg width="15" height="15" viewBox="0 0 15 15" fill="none" xmlns="http://www.w3.org/2000/svg">
<path d="M7.298 10.6365C7.18267 10.6365 7.07517 10.616 6.9755 10.575C6.87583 10.5338 6.78333 10.4691 6.698 10.3807L3.6895 7.372C3.55417 7.24 3.48617 7.08025 3.4855 6.89275C3.48483 6.70525 3.55283 6.54067 3.6895 6.399C3.82783 6.2605 3.99042 6.19083 4.17725 6.19C4.36425 6.189 4.52692 6.25775 4.66525 6.39625L6.601 8.327V0.697C6.601 0.506 6.66858 0.342082 6.80375 0.205249C6.93908 0.0684157 7.10383 0 7.298 0C7.49217 0 7.65767 0.0684157 7.7945 0.205249C7.9315 0.342082 8 0.506 8 0.697V8.327L9.93075 6.39625C10.0659 6.26092 10.2277 6.19292 10.4162 6.19225C10.6047 6.19158 10.7698 6.2605 10.9115 6.399C11.0448 6.54067 11.1128 6.70367 11.1152 6.888C11.1178 7.07233 11.0498 7.23367 10.9115 7.372L7.90275 10.3807C7.81425 10.4691 7.72017 10.5338 7.6205 10.575C7.52083 10.616 7.41333 10.6365 7.298 10.6365ZM1.70675 14.596C1.23175 14.596 0.8285 14.4303 0.497 14.099C0.165667 13.7675 0 13.3642 0 12.8892V10.9277C0 10.7336 0.0684165 10.5681 0.20525 10.4312C0.342083 10.2944 0.507583 10.226 0.70175 10.226C0.892917 10.226 1.05692 10.2944 1.19375 10.4312C1.33058 10.5681 1.399 10.7336 1.399 10.9277V12.8892C1.399 12.9662 1.431 13.0368 1.495 13.101C1.55917 13.165 1.62975 13.197 1.70675 13.197H12.8893C12.9663 13.197 13.0368 13.165 13.101 13.101C13.165 13.0368 13.197 12.9662 13.197 12.8892V10.9277C13.197 10.7336 13.2654 10.5681 13.4022 10.4312C13.5391 10.2944 13.7047 10.226 13.899 10.226C14.09 10.226 14.2539 10.2944 14.3907 10.4312C14.5276 10.5681 14.596 10.7336 14.596 10.9277V12.8892C14.596 13.3642 14.4303 13.7675 14.099 14.099C13.7675 14.4303 13.3643 14.596 12.8893 14.596H1.70675Z" fill="#212121"/>
</svg>
