<svg width="14" height="16" viewBox="0 0 14 16" fill="none" xmlns="http://www.w3.org/2000/svg">
<path d="M1.399 8.71725V15.225C1.399 15.4188 1.33033 15.5842 1.193 15.7212C1.05567 15.8584 0.891916 15.927 0.70175 15.927C0.50775 15.927 0.34225 15.8584 0.20525 15.7212C0.0684165 15.5842 0 15.4188 0 15.225V0.850999C0 0.617166 0.0832498 0.416917 0.24975 0.25025C0.41625 0.0834169 0.61825 0 0.85575 0H7.14675C7.35292 0 7.53608 0.0644162 7.69625 0.19325C7.85642 0.322083 7.95575 0.48525 7.99425 0.68275L8.25425 1.97975H12.826C13.0598 1.97975 13.2601 2.06275 13.4268 2.22875C13.5936 2.39475 13.677 2.59417 13.677 2.827V9.84525C13.677 10.0817 13.5936 10.2828 13.4268 10.4485C13.2601 10.6142 13.0598 10.697 12.826 10.697H8.5115C8.305 10.697 8.1215 10.6326 7.961 10.5037C7.8005 10.3749 7.701 10.2118 7.6625 10.0142L7.403 8.71725H1.399ZM8.969 9.298H12.278V3.37875H7.7965C7.59117 3.37875 7.40808 3.31433 7.24725 3.1855C7.08625 3.05667 6.9865 2.89358 6.948 2.69625L6.68775 1.399H1.399V7.31825H7.86C8.0655 7.31825 8.24867 7.38267 8.4095 7.5115C8.5705 7.64033 8.67025 7.8035 8.70875 8.001L8.969 9.298Z" fill="#212121"/>
</svg>
