<svg width="12" height="12" viewBox="0 0 12 12" fill="none" xmlns="http://www.w3.org/2000/svg">
<path d="M1.20517 11.3333C0.868389 11.3333 0.583333 11.2167 0.35 10.9833C0.116667 10.75 0 10.4649 0 10.1282V1.20517C0 0.868389 0.116667 0.583333 0.35 0.35C0.583333 0.116667 0.868389 0 1.20517 0H5.17317C5.31494 0 5.43372 0.0478888 5.5295 0.143667C5.62517 0.239333 5.673 0.358111 5.673 0.5C5.673 0.641889 5.62517 0.760667 5.5295 0.856333C5.43372 0.952111 5.31494 1 5.17317 1H1.20517C1.15383 1 1.10683 1.02139 1.06417 1.06417C1.02139 1.10683 1 1.15383 1 1.20517V10.1282C1 10.1795 1.02139 10.2265 1.06417 10.2692C1.10683 10.3119 1.15383 10.3333 1.20517 10.3333H5.17317C5.31494 10.3333 5.43372 10.3812 5.5295 10.477C5.62517 10.5727 5.673 10.6914 5.673 10.8333C5.673 10.9752 5.62517 11.094 5.5295 11.1897C5.43372 11.2854 5.31494 11.3333 5.17317 11.3333H1.20517ZM9.4115 6.16667H4.23083C4.08894 6.16667 3.97011 6.11878 3.87433 6.023C3.77867 5.92733 3.73083 5.80856 3.73083 5.66667C3.73083 5.52478 3.77867 5.406 3.87433 5.31033C3.97011 5.21456 4.08894 5.16667 4.23083 5.16667H9.4115L8.1295 3.88467C8.03717 3.79233 7.98995 3.67972 7.98783 3.54683C7.98572 3.41394 8.03295 3.29578 8.1295 3.19233C8.22606 3.08889 8.34317 3.03544 8.48083 3.032C8.61839 3.02867 8.73889 3.07867 8.84233 3.182L10.9052 5.24483C11.0256 5.36539 11.0858 5.506 11.0858 5.66667C11.0858 5.82733 11.0256 5.96794 10.9052 6.0885L8.84233 8.15133C8.74322 8.25044 8.6255 8.29933 8.48917 8.298C8.35283 8.29678 8.23295 8.24444 8.1295 8.141C8.03295 8.03755 7.98639 7.91878 7.98983 7.78467C7.99317 7.65044 8.04317 7.53506 8.13983 7.4385L9.4115 6.16667Z" fill="#852221"/>
</svg>
