<svg width="36" height="36" viewBox="0 0 36 36" fill="none" xmlns="http://www.w3.org/2000/svg">
<path d="M6.60562 26.2094C6.31487 26.2094 6.06675 26.1066 5.86125 25.9011C5.65575 25.6954 5.553 25.447 5.553 25.156C5.553 24.8698 5.65575 24.624 5.86125 24.4188C6.06675 24.2135 6.31487 24.1109 6.60562 24.1109H29.4015C29.6875 24.1109 29.9332 24.2138 30.1387 24.4195C30.3442 24.625 30.447 24.8709 30.447 25.1571C30.447 25.4481 30.3442 25.6963 30.1387 25.9015C29.9332 26.1068 29.6875 26.2094 29.4015 26.2094H6.60562ZM6.60562 19.0341C6.31487 19.0341 6.06675 18.9313 5.86125 18.7255C5.65575 18.52 5.553 18.2718 5.553 17.9808C5.553 17.6945 5.65575 17.4488 5.86125 17.2435C6.06675 17.0383 6.31487 16.9356 6.60562 16.9356H29.4015C29.6875 16.9356 29.9332 17.0384 30.1387 17.2439C30.3442 17.4496 30.447 17.6955 30.447 17.9815C30.447 18.2725 30.3442 18.5206 30.1387 18.7259C29.9332 18.9314 29.6875 19.0341 29.4015 19.0341H6.60562ZM6.60562 11.8585C6.31487 11.8585 6.06675 11.7558 5.86125 11.5503C5.65575 11.3445 5.553 11.0961 5.553 10.8051C5.553 10.5189 5.65575 10.2731 5.86125 10.0679C6.06675 9.86263 6.31487 9.76001 6.60562 9.76001H29.4015C29.6875 9.76001 29.9332 9.86276 30.1387 10.0683C30.3442 10.274 30.447 10.52 30.447 10.8063C30.447 11.0973 30.3442 11.3454 30.1387 11.5506C29.9332 11.7559 29.6875 11.8585 29.4015 11.8585H6.60562Z" fill="#E3E3E3"/>
</svg>
