<svg width="15" height="19" viewBox="0 0 15 19" fill="none" xmlns="http://www.w3.org/2000/svg">
<path d="M7.31825 18.323C7.21825 18.323 7.121 18.3131 7.0265 18.2933C6.93217 18.2733 6.84083 18.2465 6.7525 18.213C4.679 17.4685 3.03525 16.1639 1.82125 14.2993C0.607083 12.4348 0 10.4145 0 8.2385V3.80675C0 3.45025 0.102666 3.12783 0.308 2.8395C0.513333 2.551 0.779583 2.343 1.10675 2.2155L6.71825 0.11075C6.91992 0.0369165 7.11992 0 7.31825 0C7.51658 0 7.71817 0.0369165 7.923 0.11075L13.5345 2.2155C13.8585 2.343 14.1232 2.551 14.3285 2.8395C14.5338 3.12783 14.6365 3.45025 14.6365 3.80675V8.24525C14.6365 9.33108 14.4801 10.4027 14.1673 11.46C13.8544 12.5175 13.3761 13.5077 12.7322 14.4307C12.6114 14.6046 12.4471 14.6955 12.2393 14.7035C12.0316 14.7113 11.8537 14.6409 11.7057 14.4923L9.16525 11.9538C8.89442 12.1436 8.60167 12.2859 8.287 12.3808C7.97233 12.4756 7.65042 12.523 7.32125 12.523C6.38375 12.523 5.58575 12.1942 4.92725 11.5365C4.26875 10.8788 3.9395 10.0814 3.9395 9.14425C3.9395 8.20708 4.26833 7.40967 4.926 6.752C5.58367 6.09433 6.38108 5.7655 7.31825 5.7655C8.25542 5.7655 9.05283 6.09433 9.7105 6.752C10.3682 7.40967 10.697 8.205 10.697 9.138C10.697 9.4695 10.6512 9.78758 10.5595 10.0923C10.4678 10.3968 10.3367 10.6862 10.1662 10.9605L12.072 12.8665C12.431 12.1773 12.715 11.4465 12.924 10.674C13.133 9.90167 13.2375 9.09175 13.2375 8.24425V3.79625C13.2375 3.73542 13.2198 3.6785 13.1845 3.6255C13.1493 3.57267 13.0997 3.53342 13.0355 3.50775L7.424 1.41825C7.392 1.40542 7.35675 1.399 7.31825 1.399C7.27975 1.399 7.2445 1.40542 7.2125 1.41825L1.601 3.50775C1.53683 3.53342 1.48717 3.57267 1.452 3.6255C1.41667 3.6785 1.399 3.73542 1.399 3.79625V8.24425C1.399 10.2369 1.95708 12.0484 3.07325 13.6788C4.18942 15.3091 5.60442 16.3998 7.31825 16.951C7.62658 16.8518 7.92992 16.7323 8.22825 16.5923C8.52642 16.4521 8.81875 16.29 9.10525 16.106C9.27092 16.0013 9.45008 15.9648 9.64275 15.9963C9.83525 16.0278 9.99133 16.1215 10.111 16.2775C10.226 16.4355 10.2652 16.6073 10.2287 16.793C10.1921 16.9787 10.0896 17.1233 9.92125 17.227C9.59225 17.4275 9.26375 17.6108 8.93575 17.7768C8.60792 17.9428 8.25942 18.0915 7.89025 18.223C7.79692 18.2563 7.70325 18.2813 7.60925 18.298C7.51525 18.3147 7.41825 18.323 7.31825 18.323ZM7.31675 11.124C7.86258 11.124 8.32925 10.9308 8.71675 10.5443C9.10425 10.1579 9.298 9.69175 9.298 9.14575C9.298 8.59992 9.10475 8.13325 8.71825 7.74575C8.33192 7.35825 7.86575 7.1645 7.31975 7.1645C6.77392 7.1645 6.30725 7.35775 5.91975 7.74425C5.53225 8.13058 5.3385 8.59675 5.3385 9.14275C5.3385 9.68858 5.53175 10.1553 5.91825 10.5428C6.30458 10.9303 6.77075 11.124 7.31675 11.124Z" fill="#212121"/>
</svg>
