<svg width="12" height="12" viewBox="0 0 12 12" fill="none" xmlns="http://www.w3.org/2000/svg">
<path d="M0.932666 9.38383V10.1583V0.932666V9.38383ZM1.13783 11.091C0.823833 11.091 0.555667 10.9798 0.333333 10.7575C0.111111 10.5353 0 10.2672 0 9.95317V1.13783C0 0.823833 0.111111 0.555722 0.333333 0.3335C0.555667 0.111167 0.823833 0 1.13783 0H9.93967C10.2537 0 10.5218 0.111167 10.744 0.3335C10.9663 0.555722 11.0775 0.823833 11.0775 1.13783V2.99233H10.1448V1.13783C10.1448 1.07794 10.1256 1.02878 10.0872 0.990333C10.0487 0.951889 9.99955 0.932666 9.93967 0.932666H1.13783C1.07794 0.932666 1.02878 0.951889 0.990333 0.990333C0.951889 1.02878 0.932666 1.07794 0.932666 1.13783V9.95317C0.932666 10.0131 0.951889 10.0622 0.990333 10.1007C1.02878 10.1391 1.07794 10.1583 1.13783 10.1583H9.93967C9.99955 10.1583 10.0487 10.1391 10.0872 10.1007C10.1256 10.0622 10.1448 10.0131 10.1448 9.95317V8.09867H11.0775V9.95317C11.0775 10.2672 10.9663 10.5353 10.744 10.7575C10.5218 10.9798 10.2537 11.091 9.93967 11.091H1.13783ZM6.43017 8.45117C6.10706 8.45117 5.83222 8.3375 5.60567 8.11017C5.37922 7.88283 5.266 7.60856 5.266 7.28733V3.80333C5.266 3.48055 5.37967 3.20594 5.607 2.9795C5.83433 2.75306 6.10855 2.63983 6.42967 2.63983H10.5665C10.8896 2.63983 11.1644 2.7535 11.391 2.98083C11.6174 3.20817 11.7307 3.48244 11.7307 3.80367V7.28767C11.7307 7.61044 11.617 7.88506 11.3897 8.1115C11.1623 8.33794 10.8882 8.45117 10.5672 8.45117H6.43017ZM10.5928 7.5185C10.6527 7.5185 10.7019 7.49928 10.7403 7.46083C10.7788 7.42239 10.798 7.37328 10.798 7.3135V3.7775C10.798 3.71772 10.7788 3.66861 10.7403 3.63017C10.7019 3.59172 10.6527 3.5725 10.5928 3.5725H6.40383C6.34394 3.5725 6.29478 3.59172 6.25633 3.63017C6.21789 3.66861 6.19867 3.71772 6.19867 3.7775V7.3135C6.19867 7.37328 6.21789 7.42239 6.25633 7.46083C6.29478 7.49928 6.34394 7.5185 6.40383 7.5185H10.5928ZM8.17083 6.532C8.44583 6.532 8.67917 6.4365 8.87083 6.2455C9.0625 6.0545 9.15833 5.8215 9.15833 5.5465C9.15833 5.2715 9.06283 5.03817 8.87183 4.8465C8.68072 4.65483 8.44767 4.559 8.17267 4.559C7.89767 4.559 7.66433 4.6545 7.47267 4.8455C7.281 5.0365 7.18517 5.2695 7.18517 5.5445C7.18517 5.8195 7.28067 6.05283 7.47167 6.2445C7.66267 6.43617 7.89572 6.532 8.17083 6.532Z" fill="#ffffffff"/>
</svg>
