<svg width="19" height="15" viewBox="0 0 19 15" fill="none" xmlns="http://www.w3.org/2000/svg">
<path d="M3.45175 14.6365C2.49158 14.6365 1.67625 14.3012 1.00575 13.6307C0.33525 12.9602 0 12.1448 0 11.1845V3.447C0 2.49 0.33525 1.67625 1.00575 1.00575C1.67625 0.33525 2.49158 0 3.45175 0H15.149C16.106 0 16.9198 0.33525 17.5903 1.00575C18.2607 1.67625 18.596 2.49 18.596 3.447V11.1845C18.596 12.1448 18.2607 12.9602 17.5903 13.6307C16.9198 14.3012 16.106 14.6365 15.149 14.6365H3.45175ZM3.4115 3.75H15.197C15.5765 3.75 15.9358 3.80783 16.275 3.9235C16.614 4.03917 16.9213 4.20792 17.197 4.42975V3.447C17.197 2.88367 16.9965 2.4015 16.5955 2.0005C16.1947 1.5995 15.7125 1.399 15.149 1.399H3.45175C2.88508 1.399 2.40133 1.5995 2.0005 2.0005C1.5995 2.4015 1.399 2.88367 1.399 3.447V4.4375C1.67467 4.21883 1.982 4.04958 2.321 3.92975C2.66017 3.80992 3.02367 3.75 3.4115 3.75ZM1.4835 6.72025L12.5 9.477C12.6288 9.51033 12.7622 9.51192 12.9 9.48175C13.0378 9.45158 13.1612 9.39392 13.27 9.30875L16.9385 6.2105C16.7743 5.899 16.5386 5.64417 16.2313 5.446C15.9237 5.248 15.579 5.149 15.197 5.149H3.4115C2.92817 5.149 2.51017 5.29592 2.1575 5.58975C1.805 5.88375 1.58033 6.26058 1.4835 6.72025Z" fill="#E3E3E3"/>
</svg>
